<svg xmlns="http://www.w3.org/2000/svg" viewBox="0 0 24 24">
  <path fill="#000000" d="M19.14 12.94c.04-.31.06-.63.06-.94s-.02-.63-.06-.94l2.03-1.58a.5.5 0 0 0 .12-.64l-1.92-3.32a.5.5 0 0 0-.6-.22l-2.39.96a7.027 7.027 0 0 0-1.63-.94l-.36-2.54A.5.5 0 0 0 14.3 2h-4.6a.5.5 0 0 0-.49.42l-.36 2.54c-.6.24-1.16.55-1.63.94l-2.39-.96a.5.5 0 0 0-.6.22L2.31 8.48a.5.5 0 0 0 .12.64l2.03 1.58c-.04.31-.06.63-.06.94s.02.63.06.94L2.43 14.52a.5.5 0 0 0-.12.64l1.92 3.32c.14.24.43.34.68.22l2.39-.96c.47.39 1.03.7 1.63.94l.36 2.54c.05.26.26.42.49.42h4.6c.25 0 .46-.16.49-.42l.36-2.54c.6-.24 1.16-.55 1.63-.94l2.39.96c.25.1.54 0 .68-.22l1.92-3.32a.5.5 0 0 0-.12-.64l-2.03-1.58zM12 15.5A3.5 3.5 0 1 1 12 8a3.5 3.5 0 0 1 0 7.5z"/>
</svg>
